<svg id="Layer_1" data-name="Layer 1" xmlns="http://www.w3.org/2000/svg" viewBox="0 0 1000 1000"><title>Artboard 2</title><path d="M975.32,113.08c.06-29.5-9.83-49.76-38.6-59.08H122.29Q92.91,62.91,84,92.29V906.72c3,6.18,5.26,12.87,9.15,18.43,9,12.93,22,19.45,37.76,19.79,10.73.22,21.46.06,32.19.06q380.21,0,760.41,0c27,0,46.18-14.85,50.69-39.38.88-4.8.77-9.81.77-14.73Q975,502,975.32,113.08ZM891,535.62c-25.17,112.31-88.16,196.32-191.24,249-45.7,23.35-108.11,37-186.63,37-118.05-6.38-224.52-68.75-288-196-23.56-47.21-39.82-98.07-59-147.42-7.58-19.47-10.78-19.25,12.88-27.71,38.71-13.84,77.23-28.21,115.83-42.33,11.79-4.32,13.47-3.6,17.87,8.35,17.72,48.1,35.54,96.1,60.36,141.22,41,74.5,111,102.58,188.31,97.44,102.32-6.8,164.12-94.65,171.34-168.65,3.27-33.49-2.06-66-12.51-97.61-11.79-35.72-24.33-71.2-36.75-106.71-4.57-13.08-3.89-14.84,9.29-19.6q62.49-22.54,124.92-45.26c5.79-2.11,10.35-3.23,13,4.39,21.06,60.08,45.48,119,60.76,181C902.26,447.1,900.8,491.68,891,535.62Z" fill="#fcfcfc"/><path d="M618.39,412.1q55-73.23-4-146.3,15.74,54.84-20.87,84.61c-13.94,11.35-31.43,13.7-50.88,16.43-31.56,4.26-68.2,9.38-102.3,54.74q-55,73.23,4,146.3Q428.56,513,465.21,483.27c13.94-11.35,31.43-13.7,50.88-16.43C547.79,462.58,584.27,457.49,618.39,412.1ZM577.94,238.54q55-73.23-4-146.3,15.71,54.87-20.87,84.61c-13.94,11.35-31.43,13.7-50.91,16.4-31.54,4.28-68.2,9.38-102.3,54.74q-55,73.23,4,146.3-15.76-54.81,20.93-84.56c13.94-11.35,31.43-13.7,50.88-16.43C507.23,289,543.9,283.95,578,238.58Z" fill="#06b6d4"/></svg>